<svg
viewBox="0 0 38 32"
class="fill-current"
xmlns="http://www.w3.org/2000/svg"
>
<path
fill-rule="evenodd"
clip-rule="evenodd"
d="M12.5049 11.748L6.21582 15.7197L6.23535 15.7334V15.7793L12.4854 27.281V19.5039L18.7344 23.041L18.7334 23.0674L18.7539 23.0537L18.7344 23.041L18.7637 23.0479L24.9697 19.6621V27.49L31.2344 16.0615L24.9844 11.9111L31.2041 7.74512L37.4834 11.9111V19.6289L18.7637 31.3887L0 19.1123V11.5664L6.20606 7.38574L12.5049 11.748Z"
fill="inherit"
/>
<path
d="M24.9844 4.16602L24.9834 11.8838L18.7344 8.34766V8.32031L18.7139 8.33398L18.7344 8.34766L18.7051 8.34082L12.499 11.7266V4.18066L12.4854 4.16602L18.7051 0L24.9844 4.16602Z"
fill="inherit"
/>
</svg>